# xmcd
#
# Track frame offsets: 
#        150
#        14144
#        28298
#        43318
#        57200
#        74270
#        90395
#
# Disc length: 1408 seconds
#
# Revision: 0
# Processed by: cddbd v1.5.2PL0 Copyright (c) Steve Scherf et al.
# Submitted via: ExactAudioCopyFreeDBPlugin 1.0
#
DISCID=60057e07
DTITLE=Nora Collins - Nora Collins EP
DYEAR=2016
DGENRE=Country
TTITLE0=Recover
TTITLE1=Guess I Woulda Known By Now
TTITLE2=Don't Say We Did
TTITLE3=Whatcha See Is Whatcha Get
TTITLE4=Guilty Girl Lying
TTITLE5=Go (Ft. Reid Isbell)
TTITLE6=Miss me Off The Whiskey (Bonus Track)
EXTD=
EXTT0=
EXTT1=
EXTT2=
EXTT3=
EXTT4=
EXTT5=
EXTT6=
PLAYORDER=
